<svg xmlns="http://www.w3.org/2000/svg" viewBox="0 0 64 64" role="img" aria-label="LeonQuant">
  <defs>
    <linearGradient id="lq" x1="0%" y1="0%" x2="100%" y2="100%">
      <stop offset="0%" stop-color="#0891b2"/>
      <stop offset="100%" stop-color="#b45309"/>
    </linearGradient>
  </defs>
  <rect width="64" height="64" rx="14" fill="url(#lq)"/>
  <path fill="#fff" d="M18 42V22h8.2c5.4 0 8.8 2.8 8.8 7.4 0 3.1-1.5 5.4-4.2 6.5L36 42h-7.2l-5.8-9.2H26V42H18zm8-14.8h1.4c2.2 0 3.4-1 3.4-2.8 0-1.8-1.2-2.8-3.4-2.8H26v5.6z"/>
  <path fill="#fff" d="M38 42V22h14.5v5.4H45v3.6h6.8v5.2H45v5.8H38z"/>
</svg>
